<svg xmlns="http://www.w3.org/2000/svg" viewBox="0 0 400 400" fill="none" shape-rendering="auto" aria-hidden="true"><!-- Generated by DiceBear (https://dicebear.com) --><metadata xmlns:rdf="http://www.w3.org/1999/02/22-rdf-syntax-ns#" xmlns:xsi="http://www.w3.org/2001/XMLSchema-instance" xmlns:dc="http://purl.org/dc/elements/1.1/" xmlns:dcterms="http://purl.org/dc/terms/"><rdf:RDF><rdf:Description><dc:title>Adventurer Neutral</dc:title><dc:creator>Lisa Wischofsky</dc:creator><dc:source xsi:type="dcterms:URI">https://www.figma.com/community/file/1184595184137881796</dc:source><dcterms:license xsi:type="dcterms:URI">https://creativecommons.org/licenses/by/4.0/</dcterms:license><dc:rights>Remix of “Adventurer Neutral” (https://www.figma.com/community/file/1184595184137881796) by “Lisa Wischofsky”, licensed under “CC BY 4.0” (https://creativecommons.org/licenses/by/4.0/)</dc:rights></rdf:Description></rdf:RDF></metadata><defs><g id="eyes-variant11-32e15109"><path d="M240.3.87a65.3 65.3 0 0 1 38.2 11.72 66.4 66.4 0 0 1 25.56 35.7c2.03 8.4 3.26 17.7 1.73 26.3-.34 2.64-3.16 3.55-5.48 3.7-22.92 1.12-45.41 3.72-68.02 6.37-13.2.92-26.2 2.8-39.3 4.54-4.57.55-8.58 1.7-13.07-.02-4.7-13.26-5.45-27.76-1.52-41.3a65 65 0 0 1 25.5-35.45A65 65 0 0 1 240.31.86" fill="black"/><path d="M250.49 7.28a60 60 0 0 1 38.69 23.6 59.7 59.7 0 0 1 11.5 36.92c-.17 1.36.17 3.47-.68 4.57-4.17.71-8.5.77-12.7 1.15-18.38 1.14-36.61 3.35-54.88 5.53 1.3-3.37 2.51-6.57 2.63-10.23.4-9.56-5.03-18.9-13.67-23.1-7.93-4.1-18.77-3.17-25.87 2.3-6.37 4.72-10.35 12.81-9.79 20.78 0 6.01 2.6 11.23 6.37 15.74q-3.66.36-7.3.75a58.8 58.8 0 0 1 1.85-43.1 59.2 59.2 0 0 1 32.7-31.5c9.9-4.1 20.6-4.88 31.15-3.49" fill="white"/><path d="M100.22 31.87a55 55 0 0 1 22.55 27.5 55.8 55.8 0 0 1 1.31 34.35c-3.96 1.23-7.72.76-11.78.75-25.4-.28-50.64-.3-76 1.43-5.57-.31-13 1.8-17.82-1.36-1.63-6.9-2.98-13.6-2.05-20.72A55.2 55.2 0 0 1 31.3 40.78a55 55 0 0 1 32-16.6 55.2 55.2 0 0 1 36.93 7.7" fill="black"/><path d="M94.75 35.32c18.96 10.09 29.6 32.88 24.63 53.87q-2.84.03-5.67.13c2.5-4.85 3.78-10.11 2.82-15.56-1.25-8.23-7.5-15.16-15.4-17.62a23.6 23.6 0 0 0-14.04.47c-8.3 3.06-14.47 11.22-14.46 20.19-.3 4.37 1.04 8.24 2.82 12.14-15.4.07-30.77 1.03-46.16 1.93-1.84-.18-5.91.57-6.22-1.9-4.42-18.7 3.55-39.04 19.1-50.21 15.14-11.12 36.08-12.56 52.5-3.44" fill="white"/></g><g id="eyebrows-variant09-32e15109"><path d="M81.42 21.64c6.81.19 14.18 2.86 17.93 8.88 1.05 1.45.63 3.68.72 5.4-6.29.15-12.49.33-18.64 1.83C66.37 41.23 52.08 48.61 39.8 57.9 31.4 64.28 23.44 72 17.83 80.97c-1.43 2.22-2.41 5.03-4.29 6.9-1.24.25-2.57.27-3.83.34-.03-1.77-.21-3.46.23-5.19 5.72-20.86 19.83-39.34 38.12-50.8 9.83-5.85 21.73-11.06 33.37-10.58m181.47 38.52c10.41 1.67 21.2 3.85 30 9.97l-.2 4.78c-4.07 1.6-7.3-.15-11.31-.78-6.82-1.2-13.91-1.25-20.83-1.1-29.25 1.31-58.23 9.88-83.97 23.73-1.45.63-2.92 1.06-4.42 1.54-2.58-5.36-3.6-10.9-.13-16.17 5.13-7.67 15.2-12.39 23.63-15.44 21.34-7.36 44.88-9 67.23-6.53" fill="black"/></g><g id="mouth-variant21-32e15109"><path d="M87.45 22.09c4.71-.58 10.26.05 13.7 3.66 3.79 3.9 4.16 9.42 3.23 14.53-2.64 11.8-12.86 21.43-24.83 23.27-7.5 1.5-15.57-.3-22.15-4.05-5.15-2.91-8.86-7.64-11.08-13.06-1.3-3.3-1.62-7.23-.43-10.59 1.3-3.1 4.12-5 7.34-5.7 5.66-1.83 11.66.27 16.63 3.05 4.58-5.1 10.57-10.17 17.6-11.11" fill="black"/><path d="M87 28.1c3.29-1.03 7.38-.57 10 1.78 2.06 2.03 2.1 5.9 1.7 8.56-1.83 9.78-10.27 17.74-20.06 19.32-6.52 1.3-13.2-.33-18.84-3.68-4.3-2.52-7.44-6.98-8.81-11.72-.7-2.45-.36-5.07 2.04-6.38 2.59-1.08 5.76-1.02 8.48-.49 3.48.7 5.8 2.9 8.97 4.32 1.93-.1 2.62-1.4 3.8-2.64 3.33-3.94 7.7-7.62 12.72-9.07" fill="#8F2E45"/></g><clipPath id="clip-32e15109"><rect width="400" height="400" rx="0" ry="0"/></clipPath></defs><g clip-path="url(#clip-32e15109)"><rect width="400" height="400" fill="#d1d4f9"/><use transform="translate(36.7 101.2)" href="#eyes-variant11-32e15109"/><use transform="translate(36.64 29.5)" href="#eyebrows-variant09-32e15109"/><use transform="translate(114.51 217.6)" href="#mouth-variant21-32e15109"/></g></svg>